<?xml version="1.0" standalone="no"?><!DOCTYPE svg PUBLIC "-//W3C//DTD SVG 1.1//EN" "http://www.w3.org/Graphics/SVG/1.1/DTD/svg11.dtd"><svg t="1778463955309" class="icon" viewBox="0 0 1024 1024" version="1.1" xmlns="http://www.w3.org/2000/svg" p-id="11899" xmlns:xlink="http://www.w3.org/1999/xlink" width="200" height="200"><path d="M546.133333 159.573333L881.834667 481.28a30.378667 30.378667 0 0 1 7.168 32.426667 28.16 28.16 0 0 1-26.282667 18.773333H829.44v257.365333a72.192 72.192 0 0 1-70.485333 73.728H265.557333a72.192 72.192 0 0 1-70.485333-73.728V532.309333H161.792a28.16 28.16 0 0 1-26.282667-18.773333 30.549333 30.549333 0 0 1 7.168-32.256l336.213334-321.706667a47.786667 47.786667 0 0 1 67.242666 0z m-125.098666 443.733334a28.330667 28.330667 0 0 0-40.789334 3.072l-5.12 6.826666a115.712 115.712 0 0 0-20.992 66.56v40.106667A40.618667 40.618667 0 0 0 392.533333 760.661333h238.933334a40.618667 40.618667 0 0 0 39.765333-41.472v-40.106666a115.712 115.712 0 0 0-24.064-70.826667l-1.706667-1.877333-1.706666-1.706667a30.037333 30.037333 0 0 0-22.869334-8.533333 30.549333 30.549333 0 0 0-22.016 10.922666l-1.536 2.218667-4.608 4.778667a122.88 122.88 0 0 1-170.666666-11.434667zM512 377.002667a97.450667 97.450667 0 0 0-95.061333 99.328v34.133333a95.232 95.232 0 1 0 190.293333 0v-34.133333A97.450667 97.450667 0 0 0 512 377.002667z" fill="#2C2C2C" p-id="11900"></path></svg>