<?xml version="1.0" standalone="no"?><!DOCTYPE svg PUBLIC "-//W3C//DTD SVG 1.1//EN" "http://www.w3.org/Graphics/SVG/1.1/DTD/svg11.dtd"><svg t="1778463937170" class="icon" viewBox="0 0 1024 1024" version="1.1" xmlns="http://www.w3.org/2000/svg" p-id="10893" xmlns:xlink="http://www.w3.org/1999/xlink" width="200" height="200"><path d="M791.36 64H232.64a42.72 42.72 0 0 0-42.56 42.72v531.04a321.92 321.92 0 1 0 643.84 0V106.72A42.72 42.72 0 0 0 791.36 64zM512 908.8a270.88 270.88 0 0 1-271.04-271.04V115.04h542.08v522.72A270.88 270.88 0 0 1 512 908.8z" fill="#2B81C4" p-id="10894"></path><path d="M711.36 163.36h-400a21.92 21.92 0 0 0-24.16 18.4v177.92a21.92 21.92 0 0 0 23.84 18.56A1118.72 1118.72 0 0 0 512 397.44a1133.92 1133.92 0 0 0 200.64-19.2A21.76 21.76 0 0 0 736 359.68V181.76a21.92 21.92 0 0 0-24.64-18.4z m-16 177.28A1086.08 1086.08 0 0 1 512 357.44a1086.56 1086.56 0 0 1-184.48-16.8V203.2h368zM512 440.64a206.56 206.56 0 1 0 205.76 206.56A206.72 206.72 0 0 0 512 440.64z m0 45.44a161.12 161.12 0 1 1-161.92 161.12A161.28 161.28 0 0 1 512 486.08z" fill="#2B81C4" p-id="10895"></path><path d="M498.88 720a42.72 42.72 0 0 0 42.56-42.56 37.12 37.12 0 0 0 0-7.36l97.44-66.56a16 16 0 0 0 4.32-22.88 16 16 0 0 0-13.6-7.04 16.96 16.96 0 0 0-9.12 2.72l-96.8 66.08a41.6 41.6 0 0 0-24.16-7.52 42.56 42.56 0 1 0 0 85.12z" fill="#2B81C4" p-id="10896"></path></svg>