<?xml version="1.0" standalone="no"?><!DOCTYPE svg PUBLIC "-//W3C//DTD SVG 1.1//EN" "http://www.w3.org/Graphics/SVG/1.1/DTD/svg11.dtd"><svg t="1778463928067" class="icon" viewBox="0 0 1024 1024" version="1.1" xmlns="http://www.w3.org/2000/svg" p-id="9856" xmlns:xlink="http://www.w3.org/1999/xlink" width="200" height="200"><path d="M170.67 85.33v853.33h682.67V85.33H170.67z m597.33 768H256V512h512v341.33z m0-426.66H256v-256h512v256z" fill="#1296db" p-id="9857"></path><path d="M426.15 664.47h42.8c2.12 0 3.72 2.09 3.3 4.34L445.4 814.25c-0.01 0.05 0.05 0.09 0.08 0.05l142.85-193.39c1.12-1.51 0.12-3.75-1.68-3.75h-54.04c-2.12 0-3.45-2.47-2.39-4.45l30.64-57.2c0.72-1.34-0.18-3.02-1.62-3.02h-77.11c-3.28 0-6.29 1.99-7.77 5.14l-49.41 104.73c-0.46 0.97 0.19 2.11 1.2 2.11zM341.33 256h85.33v85.33h-85.33zM469.33 256h85.33v85.33h-85.33zM597.33 256h85.33v85.33h-85.33z" fill="#1296db" p-id="9858"></path></svg>